<svg width="20" height="19" viewBox="0 0 20 19" fill="none" xmlns="http://www.w3.org/2000/svg">
<line x1="3.39468" y1="0.69303" x2="17.3947" y2="18.693" stroke="#585858"/>
<path d="M19.6488 8.79363C19.6204 8.72863 18.9262 7.1911 17.3758 5.64273C15.9373 4.2077 13.4657 2.496 9.84601 2.496C6.22631 2.496 3.75476 4.2077 2.31622 5.64273C0.765874 7.1911 0.0716382 8.72613 0.043268 8.79363C0.0147412 8.85763 0 8.92691 0 8.99696C0 9.06702 0.0147412 9.1363 0.043268 9.2003C0.0716382 9.26447 0.765874 10.802 2.31622 12.3504C3.75476 13.7854 6.22631 15.4963 9.84601 15.4963C13.4657 15.4963 15.9373 13.7854 17.3758 12.3504C18.9262 10.802 19.6204 9.26697 19.6488 9.2003C19.6773 9.1363 19.692 9.06702 19.692 8.99696C19.692 8.92691 19.6773 8.85763 19.6488 8.79363ZM9.84601 14.4962C7.22761 14.4962 4.9413 13.5446 3.04968 11.6687C2.25671 10.8816 1.58569 9.98087 1.05875 8.99613C1.58554 8.01155 2.25658 7.11105 3.04968 6.32441C4.9413 4.44771 7.22761 3.49602 9.84601 3.49602C12.4644 3.49602 14.7507 4.44771 16.6423 6.32441C17.4354 7.11105 18.1065 8.01155 18.6333 8.99613C18.1017 10.0137 15.4366 14.4962 9.84601 14.4962ZM9.84601 5.16272C9.08686 5.16272 8.34476 5.38755 7.71356 5.80877C7.08235 6.22999 6.59038 6.82868 6.29986 7.52915C6.00935 8.22961 5.93334 9.00038 6.08144 9.74399C6.22955 10.4876 6.59511 11.1706 7.13191 11.7068C7.66871 12.2429 8.35263 12.608 9.09719 12.7559C9.84176 12.9038 10.6135 12.8279 11.3149 12.5377C12.0162 12.2476 12.6157 11.7563 13.0375 11.1259C13.4592 10.4955 13.6843 9.75431 13.6843 8.99613C13.683 7.97985 13.2782 7.00558 12.5587 6.28696C11.8391 5.56835 10.8636 5.16404 9.84601 5.16272ZM9.84601 11.8295C9.2849 11.8295 8.73639 11.6633 8.26985 11.352C7.8033 11.0407 7.43967 10.5982 7.22495 10.0804C7.01022 9.56269 6.95404 8.99299 7.0635 8.44336C7.17297 7.89374 7.44317 7.38888 7.83994 6.99262C8.2367 6.59636 8.74221 6.32651 9.29254 6.21718C9.84287 6.10786 10.4133 6.16397 10.9317 6.37842C11.4501 6.59287 11.8932 6.95604 12.2049 7.42198C12.5166 7.88793 12.683 8.43574 12.683 8.99613C12.683 9.74759 12.3841 10.4683 11.8521 10.9996C11.32 11.531 10.5984 11.8295 9.84601 11.8295Z" fill="#585858"/>
</svg>
