<svg width="20" height="14" viewBox="0 0 20 14" fill="none" xmlns="http://www.w3.org/2000/svg">
<path d="M19.6488 6.7936C19.6204 6.72859 18.9262 5.19106 17.3758 3.6427C15.9373 2.20767 13.4657 0.495972 9.84601 0.495972C6.22631 0.495972 3.75476 2.20767 2.31622 3.6427C0.765874 5.19106 0.0716382 6.72609 0.043268 6.7936C0.0147412 6.8576 0 6.92688 0 6.99693C0 7.06699 0.0147412 7.13627 0.043268 7.20027C0.0716382 7.26444 0.765874 8.80197 2.31622 10.3503C3.75476 11.7854 6.22631 13.4962 9.84601 13.4962C13.4657 13.4962 15.9373 11.7854 17.3758 10.3503C18.9262 8.80197 19.6204 7.26694 19.6488 7.20027C19.6773 7.13627 19.692 7.06699 19.692 6.99693C19.692 6.92688 19.6773 6.8576 19.6488 6.7936ZM9.84601 12.4962C7.22761 12.4962 4.9413 11.5445 3.04968 9.66865C2.25671 8.88159 1.58569 7.98084 1.05875 6.9961C1.58554 6.01152 2.25658 5.11102 3.04968 4.32438C4.9413 2.44768 7.22761 1.49599 9.84601 1.49599C12.4644 1.49599 14.7507 2.44768 16.6423 4.32438C17.4354 5.11102 18.1065 6.01152 18.6333 6.9961C18.1017 8.01362 15.4366 12.4962 9.84601 12.4962ZM9.84601 3.16269C9.08686 3.16269 8.34476 3.38752 7.71356 3.80874C7.08235 4.22996 6.59038 4.82865 6.29986 5.52912C6.00935 6.22958 5.93334 7.00035 6.08144 7.74396C6.22955 8.48757 6.59511 9.17062 7.13191 9.70673C7.66871 10.2428 8.35263 10.6079 9.09719 10.7559C9.84176 10.9038 10.6135 10.8279 11.3149 10.5377C12.0162 10.2476 12.6157 9.75623 13.0375 9.12583C13.4592 8.49543 13.6843 7.75428 13.6843 6.9961C13.683 5.97982 13.2782 5.00555 12.5587 4.28693C11.8391 3.56831 10.8636 3.16401 9.84601 3.16269ZM9.84601 9.82949C9.2849 9.82949 8.73639 9.66331 8.26985 9.35198C7.8033 9.04064 7.43967 8.59813 7.22495 8.08039C7.01022 7.56266 6.95404 6.99296 7.0635 6.44333C7.17297 5.89371 7.44317 5.38885 7.83994 4.99259C8.2367 4.59633 8.74221 4.32648 9.29254 4.21715C9.84287 4.10783 10.4133 4.16394 10.9317 4.37839C11.4501 4.59284 11.8932 4.95601 12.2049 5.42195C12.5166 5.8879 12.683 6.43571 12.683 6.9961C12.683 7.74756 12.3841 8.46825 11.8521 8.99961C11.32 9.53097 10.5984 9.82949 9.84601 9.82949Z" fill="#585858"/>
</svg>
