<svg width="89" height="92" viewBox="0 0 89 92" fill="none" xmlns="http://www.w3.org/2000/svg">
<path d="M29.2372 19.0469L0.124763 84.4997L0.152917 84.5284C-0.379453 85.5797 0.511244 87.7188 2.33615 89.5815C4.16105 91.4414 6.25982 92.3493 7.29129 91.8067L7.31688 91.8327L73.0928 61.5738C66.8603 63.9675 56.2591 57.1437 44.2988 45.1833C33.2241 33.6654 28.7943 23.9197 29.2372 19.0469Z" fill="url(#paint0_linear_2_3036)"/>
<path opacity="0.35" d="M58.681 32.1296C70.6338 44.3174 77.2705 57.3087 73.4978 61.1487C69.7277 64.9939 56.9815 58.2322 45.0211 46.0496C33.0658 33.8618 26.4317 20.8653 30.2018 17.0227C33.9744 13.1801 46.7206 19.9418 58.681 32.1296Z" fill="url(#paint1_linear_2_3036)"/>
<path fill-rule="evenodd" clip-rule="evenodd" d="M72.5969 40.5458C76.4982 40.7504 81.847 41.5684 86.4978 44.3465C87.4407 44.9026 88.1333 45.7972 88.4331 46.8462C88.7329 47.8951 88.617 49.0185 88.1094 49.985C87.6017 50.9515 86.7409 51.6875 85.7041 52.0416C84.6674 52.3956 83.5337 52.3406 82.5365 51.888L82.0911 51.6537C79.1705 49.9068 75.4362 49.2251 72.1472 49.0546C70.792 48.9766 69.4333 48.9823 68.0788 49.0717L66.7256 49.2037C65.6084 49.3472 64.4794 49.0469 63.5832 48.368C62.687 47.6891 62.0957 46.6863 61.9374 45.5767C61.7792 44.4671 62.0667 43.3402 62.7376 42.44C63.4086 41.5398 64.409 40.9389 65.5222 40.7674C67.8676 40.466 70.2368 40.3904 72.5969 40.5416V40.5458ZM81.2689 28.6753C82.3601 28.6776 83.4092 29.0942 84.2021 29.84C84.995 30.5859 85.4718 31.6047 85.5352 32.6885C85.5986 33.7723 85.2438 34.8393 84.5432 35.6716C83.8427 36.504 82.8492 37.0388 81.7657 37.167L81.2689 37.1969H78.2369C77.1457 37.1946 76.0966 36.778 75.3037 36.0322C74.5108 35.2863 74.034 34.2675 73.9706 33.1837C73.9072 32.0999 74.262 31.0329 74.9626 30.2006C75.6631 29.3682 76.6566 28.8334 77.7401 28.7051L78.2369 28.6753H81.2689ZM67.642 25.403C68.3794 26.1367 68.8223 27.1129 68.8877 28.1483C68.9532 29.1838 68.6366 30.2075 67.9975 31.0273L67.642 31.4278L63.1026 35.9485C62.3337 36.7208 61.2972 37.1715 60.2053 37.2083C59.1133 37.2452 58.0485 36.8654 57.2288 36.1467C56.409 35.4281 55.8964 34.4249 55.7958 33.3425C55.6951 32.2601 56.0141 31.1803 56.6874 30.3242L57.0428 29.9237L61.5823 25.4073C61.98 25.0111 62.4523 24.6969 62.9722 24.4825C63.4921 24.268 64.0494 24.1577 64.6121 24.1577C65.1749 24.1577 65.7322 24.268 66.2521 24.4825C66.772 24.6969 67.2443 25.0069 67.642 25.403ZM56.5632 2.96579C58.4818 8.70079 57.454 14.9812 56.2549 19.3698C55.5342 22.1058 54.5444 24.7646 53.2999 27.3076C52.7928 28.319 51.9026 29.0885 50.8252 29.4469C49.7479 29.8052 48.5715 29.7231 47.555 29.2186C46.5384 28.714 45.765 27.8284 45.4048 26.7564C45.0446 25.6845 45.1271 24.5141 45.6343 23.5027C46.6273 21.4599 47.4163 19.3249 47.9896 17.1286C48.9618 13.5836 49.45 9.73616 48.7005 6.58319L48.4393 5.66286C48.2527 5.13 48.1743 4.56557 48.2087 4.00232C48.2431 3.43908 48.3896 2.88824 48.6397 2.3818C48.8898 1.87535 49.2386 1.42337 49.6657 1.05211C50.0928 0.680843 50.5898 0.397687 51.1278 0.219076C51.6658 0.0404643 52.2341 -0.0300441 52.7997 0.0116434C53.3653 0.0533309 53.9169 0.206385 54.4226 0.461918C54.9283 0.717452 55.3779 1.07038 55.7454 1.5002C56.1128 1.93003 56.3908 2.4282 56.5632 2.96579ZM79.7529 13.3536C80.5557 14.1526 81.0068 15.2361 81.0068 16.3659C81.0068 17.4957 80.5557 18.5793 79.7529 19.3783L76.7252 22.3907C76.3301 22.7976 75.8576 23.1222 75.3351 23.3455C74.8126 23.5688 74.2507 23.6864 73.682 23.6913C73.1134 23.6962 72.5495 23.5884 72.0232 23.3742C71.4969 23.1599 71.0187 22.8435 70.6167 22.4435C70.2146 22.0434 69.8966 21.5677 69.6812 21.0441C69.4659 20.5204 69.3576 19.9594 69.3625 19.3936C69.3674 18.8279 69.4856 18.2688 69.71 17.749C69.9345 17.2291 70.2607 16.759 70.6697 16.3659L73.6975 13.3536C74.5005 12.5548 75.5896 12.1061 76.7252 12.1061C77.8607 12.1061 78.9498 12.5548 79.7529 13.3536Z" fill="url(#paint2_linear_2_3036)"/>
<defs>
<linearGradient id="paint0_linear_2_3036" x1="73.0928" y1="55.5045" x2="0.000183141" y2="55.5045" gradientUnits="userSpaceOnUse">
<stop stop-color="#64589A"/>
<stop offset="1" stop-color="#1F1646"/>
</linearGradient>
<linearGradient id="paint1_linear_2_3036" x1="108.533" y1="45.6254" x2="78.5292" y2="78.5304" gradientUnits="userSpaceOnUse">
<stop offset="0.601144" stop-color="#3BD4AE"/>
<stop offset="0.926207" stop-color="#1F1646"/>
</linearGradient>
<linearGradient id="paint2_linear_2_3036" x1="88.5964" y1="26.1361" x2="45.1838" y2="26.1361" gradientUnits="userSpaceOnUse">
<stop stop-color="#64589A"/>
<stop offset="1" stop-color="#1F1646"/>
</linearGradient>
</defs>
</svg>
